<?xml version="1.0" standalone="no"?>
<!DOCTYPE svg PUBLIC "-//W3C//DTD SVG 20010904//EN"
 "http://www.w3.org/TR/2001/REC-SVG-20010904/DTD/svg10.dtd">
<svg version="1.0" xmlns="http://www.w3.org/2000/svg"
 width="844.000000pt" height="844.000000pt" viewBox="0 0 844.000000 844.000000"
 preserveAspectRatio="xMidYMid meet">
<metadata>
Created by potrace 1.14, written by Peter Selinger 2001-2017
</metadata>
<g transform="translate(0.000000,844.000000) scale(0.100000,-0.100000)"
fill="#000000" stroke="none">
<path d="M542 7962 c-18 -3 -22 -10 -22 -35 2 -133 2 -151 -3 -187 -2 -14 0
-36 3 -50 3 -14 3 -38 0 -55 -4 -16 -3 -40 1 -51 4 -12 5 -24 2 -27 -3 -3 -4
-61 -3 -129 1 -68 1 -129 1 -135 -1 -7 -1 -28 -1 -45 0 -18 -1 -60 -1 -93 -1
-33 0 -66 0 -72 1 -18 1 -37 0 -80 -1 -21 0 -56 0 -78 2 -57 2 -171 0 -242 -1
-21 0 -56 0 -78 4 -106 3 -270 -2 -305 -2 -14 0 -36 3 -50 3 -14 3 -38 0 -55
-4 -16 -3 -40 1 -51 4 -12 5 -24 2 -27 -3 -3 -4 -61 -3 -129 2 -137 2 -133 -3
-168 -2 -14 0 -36 3 -50 3 -14 3 -38 0 -55 -4 -16 -3 -40 1 -51 4 -12 5 -24 2
-27 -3 -3 -4 -61 -3 -129 1 -68 1 -129 1 -135 -1 -7 -1 -28 -1 -45 0 -18 -1
-60 -1 -93 -1 -33 0 -66 0 -72 1 -18 1 -37 0 -80 -1 -21 0 -56 0 -78 2 -57 2
-171 0 -242 -1 -21 -1 -58 0 -83 1 -25 1 -61 2 -80 0 -19 2 -36 4 -38 7 -7
3385 -6 3392 1 3 4 7 769 7 1701 1 1500 -1 1694 -14 1695 -8 0 -44 0 -80 0
-36 0 -71 0 -77 0 -7 0 -32 1 -56 1 -23 1 -47 1 -52 0 -6 -1 -14 -1 -20 0 -24
4 -165 1 -174 -4 -5 -4 -12 -2 -16 3 -3 6 -11 8 -19 5 -18 -7 -146 -10 -146
-4 0 3 -27 3 -60 0 -34 -3 -63 -4 -65 -1 -7 6 -162 4 -174 -3 -5 -4 -12 -2
-16 4 -4 6 -11 8 -16 4 -12 -7 -188 -8 -195 -1 -3 3 -20 1 -39 -3 -19 -4 -36
-5 -39 -2 -5 4 -86 6 -103 2 -5 -2 -12 -2 -16 -1 -27 5 -138 4 -142 -1 -3 -3
-21 -2 -39 2 -19 4 -39 4 -46 0 -7 -4 -27 -4 -46 0 -20 5 -34 4 -34 -2 0 -5
-4 -7 -9 -3 -13 7 -139 10 -146 3 -3 -3 -21 -2 -39 2 -19 4 -39 4 -46 0 -6 -4
-26 -4 -43 -1 -18 4 -52 4 -77 1 -25 -3 -58 -3 -75 0 -16 3 -44 3 -62 -1 -18
-4 -34 -4 -38 -1 -7 7 -161 5 -174 -2 -5 -4 -12 -2 -16 3 -3 6 -11 8 -19 5
-18 -7 -146 -10 -146 -4 0 3 -27 3 -60 0 -34 -3 -63 -4 -65 -1 -7 6 -162 4
-174 -3 -5 -4 -12 -2 -16 4 -4 6 -11 8 -16 4 -12 -7 -188 -8 -195 -1 -3 3 -20
1 -39 -3 -19 -4 -36 -5 -39 -2 -7 6 -95 7 -102 0 -2 -3 -21 -2 -42 1 -20 4
-47 5 -60 3z m3179 -220 c5 -165 2 -2902 -4 -2902 -5 0 -5 -5 -1 -12 4 -7 8
-25 8 -41 l0 -30 -95 2 c-52 1 -98 2 -104 2 -11 0 -291 0 -315 0 -8 0 -80 0
-160 0 -80 0 -152 0 -160 0 -8 0 -80 0 -160 0 -80 0 -152 0 -160 0 -8 0 -58
-1 -111 -2 -53 -1 -101 1 -107 5 -6 3 -13 2 -17 -4 -4 -6 -10 -8 -15 -5 -4 3
-32 5 -62 5 -29 0 -147 0 -263 0 -115 1 -219 1 -230 1 -11 0 -96 -1 -190 -1
-93 -1 -174 -1 -180 0 -5 1 -12 2 -15 1 -16 -5 -300 -2 -308 3 -6 3 -13 2 -17
-4 -4 -6 -10 -8 -14 -6 -4 3 -32 5 -62 5 -155 2 -226 3 -241 3 -16 -1 -17 96
-17 1491 0 820 3 1495 5 1499 3 4 677 7 1499 7 1403 0 1495 -1 1496 -17z"/>
<path d="M2087 6854 c-1 -1 -20 -5 -42 -8 -85 -14 -101 -17 -135 -28 -19 -7
-37 -12 -40 -13 -3 0 -15 -6 -27 -13 -13 -7 -23 -10 -23 -8 0 8 -121 -64 -165
-98 -50 -39 -123 -112 -157 -157 -51 -67 -109 -180 -124 -244 -8 -33 -15 -64
-21 -95 -8 -46 -7 -217 1 -255 4 -16 9 -41 12 -55 17 -90 74 -213 135 -297 55
-74 186 -203 207 -203 5 0 17 -8 28 -18 36 -34 168 -90 274 -116 84 -21 291
-28 399 -13 225 31 496 142 574 236 25 31 22 78 -8 105 -32 30 -49 26 -140
-33 -61 -40 -188 -100 -245 -116 -137 -38 -206 -48 -330 -49 -186 -1 -252 10
-365 65 -93 45 -117 62 -196 139 -53 52 -110 132 -137 193 -7 15 -17 37 -22
50 -13 28 -49 170 -45 177 2 3 341 5 755 5 l751 0 -5 80 c-3 44 -8 91 -11 105
-2 14 -7 39 -11 55 -59 293 -326 544 -634 595 -62 11 -246 20 -253 14z m209
-159 c29 -3 68 -12 88 -20 20 -8 36 -13 36 -10 0 6 143 -68 165 -86 33 -27
130 -125 153 -154 28 -36 92 -167 92 -189 0 -8 5 -27 12 -41 6 -14 8 -28 4
-32 -12 -12 -1346 -10 -1346 2 0 6 5 26 11 45 5 19 12 42 14 50 8 32 38 96 69
144 98 154 296 275 476 293 30 3 57 7 58 8 4 4 89 -1 168 -10z"/>
<path d="M4548 7960 l-25 -5 0 -1693 c0 -1060 3 -1695 9 -1699 8 -4 3271 -8
3373 -4 20 1 20 8 20 1700 l0 1699 -38 4 c-21 2 -40 1 -43 -3 -2 -4 -19 -3
-38 1 -19 4 -39 4 -46 0 -6 -4 -26 -4 -43 -1 -18 4 -52 4 -77 1 -25 -3 -58 -3
-75 0 -16 3 -44 3 -62 -1 -18 -4 -34 -4 -38 -1 -7 7 -161 5 -174 -2 -5 -4 -12
-2 -16 3 -3 6 -11 8 -19 5 -18 -7 -146 -10 -146 -4 0 3 -27 3 -60 0 -34 -3
-63 -4 -65 -1 -7 6 -162 4 -174 -3 -5 -4 -12 -2 -16 4 -4 6 -11 8 -16 4 -12
-7 -188 -8 -195 -1 -3 3 -20 1 -39 -3 -19 -4 -36 -5 -39 -2 -5 4 -86 6 -103 2
-5 -2 -12 -2 -16 -1 -27 5 -138 4 -142 -1 -3 -3 -21 -2 -39 2 -19 4 -39 4 -46
0 -7 -4 -27 -4 -46 0 -20 5 -34 4 -34 -2 0 -5 -4 -7 -9 -3 -13 7 -139 10 -146
3 -3 -3 -21 -2 -39 2 -19 4 -39 4 -46 0 -6 -4 -26 -4 -43 -1 -18 4 -52 4 -77
1 -25 -3 -58 -3 -75 0 -16 3 -44 3 -62 -1 -18 -4 -34 -4 -38 -1 -7 7 -161 5
-174 -2 -5 -4 -12 -2 -16 3 -3 6 -11 8 -19 5 -18 -7 -146 -10 -146 -4 0 3 -27
3 -60 0 -34 -3 -63 -4 -65 -1 -7 6 -162 4 -174 -3 -5 -4 -12 -2 -16 4 -4 6
-11 8 -16 4 -10 -6 -132 -6 -235 -1 -28 1 -62 0 -76 -3z m3177 -1700 l0 -1500
-40 -1 c-22 0 -101 0 -175 1 -74 0 -139 1 -145 1 -24 0 -302 0 -315 0 -8 0
-80 0 -160 0 -80 0 -152 0 -160 0 -8 0 -80 0 -160 0 -80 0 -154 0 -165 0 -11
0 -119 0 -240 0 -121 0 -229 0 -240 0 -11 0 -97 -1 -191 -2 -95 -1 -176 1
-182 5 -6 3 -13 2 -17 -4 -4 -6 -10 -8 -15 -5 -4 3 -32 5 -62 5 -29 0 -147 0
-263 0 -115 1 -221 1 -235 1 -14 0 -70 0 -124 -1 -54 0 -102 2 -105 6 -3 3 -6
678 -7 1499 l0 1494 1500 0 1501 0 0 -1499z"/>
<path d="M5224 7462 c-23 -24 -26 -53 -9 -94 10 -26 38 -31 165 -32 l115 -2 2
-952 c2 -886 0 -952 -15 -953 -9 0 -64 -2 -122 -3 -58 -1 -115 -7 -126 -14
-52 -28 -34 -117 26 -129 14 -3 201 -5 331 -4 l56 1 -1 136 c-1 75 2 138 6
140 5 3 8 1 8 -4 0 -15 141 -155 190 -189 79 -54 207 -116 253 -122 4 -1 8 -1
10 -2 20 -6 111 -13 182 -13 123 0 187 11 286 53 91 38 170 93 248 171 79 80
81 83 131 163 40 63 87 184 95 242 3 17 8 50 13 75 12 68 6 225 -13 310 -12
52 -44 139 -72 190 -141 264 -400 424 -683 424 -222 -1 -399 -79 -567 -250
-45 -46 -83 -80 -85 -76 -2 4 -3 220 -3 480 1 324 -2 472 -9 473 -6 1 -96 2
-199 3 -186 1 -189 1 -213 -22z m1166 -766 c156 -24 331 -140 426 -283 41 -62
88 -174 99 -238 9 -49 13 -255 5 -255 -3 0 -7 -11 -8 -25 -3 -45 -41 -141 -79
-206 -35 -58 -174 -209 -194 -209 -4 0 -14 -6 -21 -13 -15 -14 -124 -67 -149
-72 -9 -2 -33 -8 -53 -13 -65 -18 -223 -11 -302 13 -115 36 -213 99 -293 191
-118 134 -162 248 -167 429 -3 93 1 136 15 191 16 63 65 180 81 194 3 3 17 21
32 41 68 92 160 166 259 212 51 23 76 31 144 43 16 3 31 6 32 8 5 4 128 -1
173 -8z"/>
<path d="M678 3964 c-3 -2 -39 -5 -81 -7 -60 -1 -76 -5 -76 -17 0 -8 -2 -26
-4 -40 -1 -14 0 -36 3 -50 3 -14 3 -38 0 -55 -4 -16 -3 -40 1 -51 4 -12 5 -24
2 -27 -3 -3 -4 -61 -3 -129 1 -68 1 -129 1 -135 -1 -7 -1 -28 -1 -45 0 -18 -1
-60 -1 -93 -1 -33 0 -66 0 -72 1 -18 1 -37 0 -80 -1 -21 0 -56 0 -78 2 -57 2
-171 0 -242 -1 -21 0 -56 0 -78 4 -106 3 -270 -2 -305 -2 -14 0 -36 3 -50 3
-14 3 -38 0 -55 -4 -16 -3 -40 1 -51 4 -12 5 -24 2 -27 -3 -3 -4 -61 -3 -129
2 -137 2 -133 -3 -168 -2 -14 0 -36 3 -50 3 -14 3 -38 0 -55 -4 -16 -3 -40 1
-51 4 -12 5 -24 2 -27 -3 -3 -4 -61 -3 -129 1 -68 1 -129 1 -135 -1 -7 -1 -28
-1 -45 0 -18 -1 -60 -1 -93 -1 -33 0 -66 0 -72 1 -18 1 -37 0 -80 -1 -21 0
-56 0 -78 2 -57 2 -171 0 -242 -1 -21 0 -56 0 -78 1 -22 1 -94 1 -159 0 -65 2
-121 5 -124 7 -8 3375 -8 3388 0 7 4 10 510 9 1685 0 923 -1 1685 -1 1694 -1
14 -18 16 -136 15 -74 0 -135 2 -135 6 0 4 -6 5 -14 2 -21 -8 -106 -10 -106
-2 0 4 -6 5 -14 2 -21 -8 -106 -10 -106 -2 0 4 -6 5 -14 2 -21 -8 -106 -10
-106 -2 0 4 -6 5 -14 2 -23 -9 -106 -10 -106 -1 0 5 -5 5 -11 1 -6 -3 -39 -6
-74 -6 -35 0 -68 3 -74 6 -6 4 -11 4 -11 -1 0 -9 -83 -8 -106 1 -8 3 -14 2
-14 -2 0 -8 -85 -6 -106 2 -8 3 -14 2 -14 -2 0 -8 -85 -6 -106 2 -8 3 -14 2
-14 -3 0 -4 -23 -5 -50 -1 -28 4 -53 4 -55 1 -4 -8 -129 -6 -143 2 -6 4 -13 4
-15 0 -6 -10 -129 -9 -145 0 -6 4 -13 4 -15 0 -6 -10 -129 -9 -145 0 -6 4 -13
4 -15 0 -6 -9 -219 -8 -242 1 -8 3 -15 2 -15 -2 0 -4 -33 -6 -72 -4 -40 1 -79
3 -85 2 -7 0 -33 0 -58 0 -25 0 -52 0 -60 0 -8 0 -35 0 -60 0 -25 0 -52 0 -60
0 -8 0 -35 0 -60 0 -25 0 -52 0 -60 0 -8 0 -35 0 -60 0 -25 0 -52 0 -60 0 -8
0 -35 0 -60 0 -25 0 -52 0 -60 0 -8 0 -35 0 -60 0 -25 0 -52 0 -60 0 -8 0 -35
0 -60 0 -25 0 -52 0 -60 0 -8 0 -35 0 -59 -1 -24 -1 -48 1 -53 4 -6 4 -12 4
-15 1z m3043 -233 c3 -186 0 -2964 -4 -2968 -5 -4 -2837 -8 -2974 -4 l-22 1 0
1492 c0 820 2 1495 4 1499 3 4 678 7 1500 7 l1495 0 1 -27z"/>
<path d="M2137 3284 c-2 -2 -23 -6 -48 -9 -63 -7 -99 -15 -121 -26 -10 -5 -18
-8 -18 -5 0 11 -130 -50 -190 -89 -159 -103 -258 -260 -295 -465 -18 -100 -13
-316 9 -394 51 -180 169 -316 353 -410 29 -14 56 -27 60 -27 5 -1 17 -5 29 -9
20 -8 33 -11 129 -27 52 -9 158 -9 215 -1 91 13 305 88 322 112 21 30 3 -15
-43 -107 -110 -219 -210 -340 -362 -440 -106 -70 -195 -111 -363 -167 -182
-62 -224 -95 -224 -182 0 -44 34 -102 73 -123 58 -31 167 -10 333 66 120 54
327 160 372 190 24 16 45 29 47 29 26 0 208 192 268 282 91 138 190 357 223
493 32 133 45 192 49 222 15 100 19 179 19 303 -1 107 -5 151 -23 215 -72 260
-254 459 -501 547 -41 15 -86 21 -182 23 -70 2 -129 1 -131 -1z m231 -285 c86
-44 200 -155 248 -244 39 -71 54 -104 60 -130 12 -50 12 -237 0 -284 -10 -40
-20 -51 -86 -98 -41 -29 -82 -56 -90 -60 -8 -4 -17 -9 -20 -12 -11 -13 -99
-51 -153 -66 -67 -19 -198 -18 -266 2 -54 16 -145 57 -166 75 -90 78 -125 130
-149 223 -14 56 -16 194 -3 265 44 242 219 373 485 365 61 -2 85 -9 140 -36z"/>
<path d="M4523 2265 c0 -938 3 -1705 6 -1706 8 -1 3361 -1 3381 0 13 1 15 197
15 1698 l0 1698 -40 0 c-22 1 -45 4 -51 8 -6 3 -14 4 -18 0 -9 -9 -326 -10
-326 -1 0 4 -6 5 -14 2 -21 -8 -106 -10 -106 -2 0 4 -6 5 -14 2 -21 -8 -106
-10 -106 -2 0 4 -6 5 -14 2 -21 -8 -106 -10 -106 -2 0 4 -6 5 -14 2 -23 -9
-106 -10 -106 -1 0 5 -5 5 -11 1 -6 -3 -39 -6 -74 -6 -35 0 -68 3 -74 6 -6 4
-11 4 -11 -1 0 -9 -83 -8 -106 1 -8 3 -14 2 -14 -2 0 -8 -85 -6 -106 2 -8 3
-14 2 -14 -2 0 -8 -85 -6 -106 2 -8 3 -14 2 -14 -3 0 -4 -23 -5 -50 -1 -28 4
-53 4 -55 1 -4 -8 -129 -6 -143 2 -6 4 -13 4 -15 0 -6 -10 -129 -9 -145 0 -6
4 -13 4 -15 0 -6 -10 -129 -9 -145 0 -6 4 -13 4 -15 0 -6 -9 -219 -8 -242 1
-8 3 -15 2 -15 -2 0 -4 -33 -6 -72 -4 -40 1 -79 3 -85 2 -7 0 -33 0 -58 0 -25
0 -52 0 -60 0 -8 0 -35 0 -60 0 -25 0 -52 0 -60 0 -8 0 -35 0 -60 0 -25 0 -52
0 -60 0 -8 0 -35 0 -60 0 -25 0 -52 0 -60 0 -8 0 -35 0 -60 0 -25 0 -52 0 -60
0 -8 0 -35 0 -60 0 -25 0 -52 0 -60 0 -8 0 -35 0 -60 0 -25 0 -52 0 -60 0 -8
0 -35 0 -59 -1 -24 -1 -48 1 -53 4 -7 4 -10 -583 -10 -1698z m3187 1489 c13
-3 15 -178 15 -1499 l0 -1495 -25 -1 c-154 -4 -2960 0 -2967 4 -7 5 -12 2987
-5 2993 5 4 2969 2 2982 -2z"/>
<path d="M6381 3473 c-42 -7 -85 -17 -96 -22 -11 -5 -38 -17 -60 -27 -91 -40
-180 -127 -225 -218 -38 -79 -42 -104 -44 -266 l-1 -135 -45 -2 c-61 -2 -109
-2 -220 -3 -113 0 -143 -15 -148 -72 -2 -29 2 -40 24 -57 25 -20 39 -21 208
-21 l181 0 -1 -607 c-1 -335 -2 -610 -3 -613 0 -3 -81 -5 -178 -4 -206 2 -249
-5 -264 -44 -14 -36 -4 -68 27 -88 23 -16 80 -17 617 -16 326 0 606 1 623 1
70 2 103 92 47 128 -24 16 -61 18 -357 19 -182 1 -338 2 -346 3 -13 1 -15 74
-14 603 1 332 2 606 3 611 0 4 160 7 355 7 221 0 365 4 382 10 32 13 53 38 49
59 -2 9 -4 22 -4 29 -1 16 -35 45 -58 49 -10 2 -47 3 -83 2 -36 0 -72 -1 -80
0 -20 2 -109 3 -140 2 -42 -2 -244 -3 -260 -1 -8 0 -47 1 -87 1 -47 0 -72 4
-75 12 -2 6 -4 68 -3 137 1 111 4 131 26 180 65 139 216 213 420 204 104 -5
249 -17 324 -28 174 -26 214 -11 202 74 -4 31 -58 60 -122 65 -25 2 -53 6 -63
9 -90 26 -399 37 -511 19z"/>
</g>
</svg>
